<svg width="220" height="93" viewBox="0 0 220 93" fill="none" xmlns="http://www.w3.org/2000/svg">
<path d="M218 2V91H135.5V2H218ZM131.5 2V91H2V2H131.5Z" stroke="white" stroke-width="4"/>
<circle cx="178" cy="47" r="4" fill="white"/>
<circle cx="194" cy="47" r="4" fill="white"/>
<circle cx="162" cy="47" r="4" fill="white"/>
<path d="M30.24 40V36.584H33.432V23.816H30.24V20.4H40.684V23.816H37.52V36.584H40.684V40H30.24ZM62.0482 40.336C60.3309 40.336 58.8749 40.0467 57.6802 39.468C56.5042 38.8893 55.5522 38.1147 54.8242 37.144C54.0962 36.1547 53.5642 35.0533 53.2282 33.84C52.9109 32.608 52.7522 31.348 52.7522 30.06C52.7522 28.6973 52.9389 27.4187 53.3122 26.224C53.6856 25.0107 54.2549 23.9467 55.0202 23.032C55.7856 22.0987 56.7469 21.3707 57.9042 20.848C59.0616 20.3067 60.4242 20.036 61.9922 20.036C63.2056 20.036 64.3349 20.288 65.3802 20.792C66.4256 21.296 67.3122 21.996 68.0402 22.892C68.7869 23.7693 69.2909 24.7867 69.5522 25.944L65.6042 26.728C65.4736 26.1867 65.2216 25.6827 64.8482 25.216C64.4749 24.7493 64.0362 24.376 63.5322 24.096C63.0282 23.816 62.4962 23.676 61.9362 23.676C60.8162 23.676 59.8922 23.928 59.1642 24.432C58.4549 24.936 57.9229 25.664 57.5682 26.616C57.2322 27.5493 57.0642 28.6787 57.0642 30.004C57.0642 31.4787 57.2416 32.7107 57.5962 33.7C57.9696 34.6893 58.5202 35.436 59.2482 35.94C59.9949 36.4253 60.9282 36.668 62.0482 36.668C62.5709 36.668 63.0749 36.5467 63.5602 36.304C64.0642 36.0427 64.4936 35.688 64.8482 35.24C65.2216 34.792 65.4736 34.26 65.6042 33.644L69.5522 34.428C69.2909 35.5667 68.8429 36.584 68.2082 37.48C67.5736 38.376 66.7429 39.076 65.7162 39.58C64.6896 40.084 63.4669 40.336 62.0482 40.336ZM70.6048 40L77.4648 20.4H81.6648L75.0288 40H70.6048ZM75.4768 35.492V31.964H84.4928V35.492H75.4768ZM84.8008 40L78.3608 20.4H82.2248L89.0568 40H84.8008ZM91.5473 40V20.4H95.9153L104.175 34.288H103.279V20.4H107.367V40H103.335L94.7393 25.888H95.6353V40H91.5473ZM36.764 74.336C35.4013 74.336 34.244 74.1493 33.292 73.776C32.3587 73.4027 31.584 72.8987 30.968 72.264C30.3707 71.6293 29.9133 70.9293 29.596 70.164C29.2787 69.38 29.0733 68.5867 28.98 67.784H33.348C33.4787 68.4747 33.712 69.0347 34.048 69.464C34.384 69.8933 34.7853 70.2107 35.252 70.416C35.7373 70.6027 36.2413 70.696 36.764 70.696C37.3427 70.696 37.856 70.6213 38.304 70.472C38.752 70.3227 39.1067 70.108 39.368 69.828C39.648 69.548 39.788 69.2027 39.788 68.792C39.788 68.176 39.6013 67.6907 39.228 67.336C38.8733 66.9813 38.388 66.7013 37.772 66.496C37.1747 66.272 36.512 66.0667 35.784 65.88C35.0747 65.6933 34.356 65.4787 33.628 65.236C32.9187 64.9747 32.256 64.6387 31.64 64.228C31.0427 63.7987 30.5573 63.2387 30.184 62.548C29.8293 61.8573 29.652 60.9707 29.652 59.888C29.652 58.936 29.904 58.0213 30.408 57.144C30.912 56.248 31.6867 55.5107 32.732 54.932C33.796 54.3533 35.1493 54.064 36.792 54.064C38.0427 54.064 39.1067 54.2507 39.984 54.624C40.88 54.9787 41.608 55.4453 42.168 56.024C42.7467 56.6027 43.176 57.228 43.456 57.9C43.736 58.572 43.8947 59.2253 43.932 59.86H39.648C39.5733 59.3933 39.4053 59.0013 39.144 58.684C38.9013 58.3667 38.5747 58.124 38.164 57.956C37.772 57.788 37.3147 57.704 36.792 57.704C36.3813 57.704 35.952 57.76 35.504 57.872C35.0747 57.984 34.7013 58.1893 34.384 58.488C34.0853 58.768 33.936 59.188 33.936 59.748C33.936 60.2333 34.1133 60.6347 34.468 60.952C34.8413 61.2507 35.3267 61.5027 35.924 61.708C36.54 61.9133 37.212 62.1187 37.94 62.324C38.668 62.5107 39.3867 62.744 40.096 63.024C40.824 63.304 41.4867 63.668 42.084 64.116C42.7 64.5453 43.1853 65.1053 43.54 65.796C43.9133 66.4867 44.1 67.3547 44.1 68.4C44.1 69.6693 43.792 70.752 43.176 71.648C42.5787 72.5253 41.7293 73.1973 40.628 73.664C39.5453 74.112 38.2573 74.336 36.764 74.336ZM47.6372 74.028V54.372H56.0372C57.2879 54.372 58.3892 54.6427 59.3412 55.184C60.2932 55.7253 61.0399 56.4907 61.5812 57.48C62.1412 58.4693 62.4212 59.636 62.4212 60.98C62.4212 62.1747 62.1599 63.276 61.6372 64.284C61.1332 65.2733 60.3959 66.0667 59.4252 66.664C58.4732 67.2427 57.3252 67.532 55.9812 67.532H51.7812V74.028H47.6372ZM51.7252 64.004H55.3372C56.2332 64.004 56.9145 63.696 57.3812 63.08C57.8665 62.4453 58.1092 61.7267 58.1092 60.924C58.1092 60.084 57.8665 59.3747 57.3812 58.796C56.8959 58.1987 56.2145 57.9 55.3372 57.9H51.7252V64.004ZM65.2127 74V70.584H68.4047V57.816H65.2127V54.4H75.6567V57.816H72.4927V70.584H75.6567V74H65.2127ZM88.3529 74.336C86.6356 74.336 85.1796 74.0467 83.9849 73.468C82.8089 72.8893 81.8569 72.1147 81.1289 71.144C80.4009 70.1547 79.8689 69.0533 79.5329 67.84C79.2156 66.608 79.0569 65.348 79.0569 64.06C79.0569 62.6973 79.2436 61.4187 79.6169 60.224C79.9902 59.0107 80.5596 57.9467 81.3249 57.032C82.0902 56.0987 83.0516 55.3707 84.2089 54.848C85.3662 54.3067 86.7289 54.036 88.2969 54.036C89.5102 54.036 90.6396 54.288 91.6849 54.792C92.7302 55.296 93.6169 55.996 94.3449 56.892C95.0916 57.7693 95.5956 58.7867 95.8569 59.944L91.9089 60.728C91.7782 60.1867 91.5262 59.6827 91.1529 59.216C90.7796 58.7493 90.3409 58.376 89.8369 58.096C89.3329 57.816 88.8009 57.676 88.2409 57.676C87.1209 57.676 86.1969 57.928 85.4689 58.432C84.7596 58.936 84.2276 59.664 83.8729 60.616C83.5369 61.5493 83.3689 62.6787 83.3689 64.004C83.3689 65.4787 83.5462 66.7107 83.9009 67.7C84.2742 68.6893 84.8249 69.436 85.5529 69.94C86.2996 70.4253 87.2329 70.668 88.3529 70.668C88.8756 70.668 89.3796 70.5467 89.8649 70.304C90.3689 70.0427 90.7982 69.688 91.1529 69.24C91.5262 68.792 91.7782 68.26 91.9089 67.644L95.8569 68.428C95.5956 69.5667 95.1476 70.584 94.5129 71.48C93.8782 72.376 93.0476 73.076 92.0209 73.58C90.9942 74.084 89.7716 74.336 88.3529 74.336ZM99.2895 74V54.4H112.086V57.928H103.378V62.156H110.658V65.684H103.378V70.472H112.086V74H99.2895Z" fill="white"/>
</svg>
