<svg width="1923" height="1085" viewBox="0 0 1923 1085" fill="none" xmlns="http://www.w3.org/2000/svg">
<g clip-path="url(#clip0_91_85)">
<path d="M348.513 896.461C227.454 899.086 37.3236 729.088 1.51294 689.203L1.78986 814.589C66.6936 876.057 260.771 1050.8 469.041 1050.34C677.311 1049.88 886.035 814.451 1092.69 932.119C1162.48 971.857 1324.66 978.473 1460.69 932.119C1616.15 879.146 1617.93 637.675 1780.73 659.296C1840.1 667.18 1901.84 697.827 1921.59 719.93L1921.21 548.086C1895.3 532.657 1818.47 495.314 1746.79 483.529C1575.25 455.329 1555.58 533.05 1430.44 549.17C1286.92 567.657 1199.83 526.156 1060.19 564.119C931.29 599.162 876.25 662.411 755.69 719.93C599.267 794.56 480.276 893.603 348.513 896.461Z" fill="#CFE0C4"/>
</g>
<defs>
<clipPath id="clip0_91_85">
<rect width="1920" height="1080" fill="white" transform="translate(1922.38 1080) rotate(179.873)"/>
</clipPath>
</defs>
</svg>
